# xmcd
#
# Track frame offsets:
#	150
#	18514
#	30460
#	53211
#	66845
#	82239
#	95919
#	108936
#	134527
#	156137
#	174558
#	181641
#	203114
#	247780
#	261994
#	287368
#	310242
#
# Disc length: 4379 seconds
#
# Revision: 1
# Processed by: cddbd v1.5.1PL0 Copyright (c) Steve Scherf et al.
# Submitted via: audiograbber 1.83.01
#
DISCID=e8111911
DTITLE=Dead Can Dance - Unreleased Tracks Vol. 2 
DYEAR=1900
DGENRE=
TTITLE0=No Reason At All
TTITLE1=Drag My Feet
TTITLE2=For A While
TTITLE3=Ichor
TTITLE4=I Leave You
TTITLE5=We Are Angels
TTITLE6=Family´s Around You
TTITLE7=Thespian Arrival
TTITLE8=Amondies
TTITLE9=Keen Voices
TTITLE10=Adoration
TTITLE11=Greek Rembetika
TTITLE12=Rembetika
TTITLE13=Lisa´s First Composition
TTITLE14=Tanamakoa
TTITLE15=ARF ARF The Infanta Of Castile
TTITLE16=I Must Have Been Blind
EXTD=
EXTT0=
EXTT1=
EXTT2=
EXTT3=
EXTT4=
EXTT5=
EXTT6=
EXTT7=
EXTT8=
EXTT9=
EXTT10=
EXTT11=
EXTT12=
EXTT13=
EXTT14=
EXTT15=
EXTT16=
PLAYORDER=
